<?xml version="1.0" encoding="utf-8"?>
<?xml-stylesheet type="text/xsl" href="rss1.xsl"?>
<rss version="2.0" xmlns:atom="http://www.w3.org/2005/Atom" xmlns:content="http://purl.org/rss/1.0/modules/content/" xmlns:dc="http://purl.org/dc/elements/1.1/" xmlns:media="http://search.yahoo.com/mrss/">
<channel>
 <title>Getty</title>
 <link>http://www.gettyimg.com/</link>
 <atom:link href="http://www.gettyimg.com/" rel="self" type="application/rss+xml" />

 
                <item>
                <title><![CDATA[【SD Live Performances】Nelly Furtado - Presenting Award _MTV-EMA 2005) [svcd-Malibu-ImV]]]></title>
                <link><![CDATA[https://sharemania.us/threads/nelly-furtado-presenting-award-_mtv-ema-2005-svcd-malibu-imv.249478/]]></link>
                <description><![CDATA[<article>
<blockquote class="messageText SelectQuoteContainer ugc baseHtml">
<img src="https://live-imagecollect.s3.amazonaws.com/preview/560/f1d858cdcb21653" class="bbCodeImage LbImage" alt="[​IMG]" data-url="https://live-imagecollect.s3.amazonaws.com/preview/560/f1d858cdcb21653" style=""> <br>
<br>
<a href="https://www.mediafire.com/file/xo1vqugm6g6d9yz/Nelly_Furtado_-_Presenting_Award__MTV-EMA_2005%2529_%255Bsvcd-Malibu-ImV%255D.mpg/file" target="_blank" class="externalLink" rel="nofollow">https://www.mediafire.com/file/xo1v...TV-EMA_2005%29_%5Bsvcd-Malibu-ImV%5D.mpg/file</a>
<div class="messageTextEndMarker">&nbsp;</div>
</blockquote>
</article>]]></description>
                <author><![CDATA[miguelmr87]]></author>
                </item>

                
                <item>
                <title><![CDATA[【Apple Music】WEB-RiP - Campo &amp; David Puentez - Fresh (1080p)]]></title>
                <link><![CDATA[https://sharemania.us/threads/campo-david-puentez-fresh-1080p.249479/]]></link>
                <description><![CDATA[<article>
<blockquote class="messageText SelectQuoteContainer ugc baseHtml">
<img src="https://i.postimg.cc/HLR2MZy6/Campo-David-Puentez-Fresh-mp4.jpg" class="bbCodeImage LbImage" alt="[​IMG]" data-url="https://i.postimg.cc/HLR2MZy6/Campo-David-Puentez-Fresh-mp4.jpg" style=""><br>
<br>
<div class="bbCodeBlock bbCodeCode">
<div class="type">Code:</div>
<pre>General
Complete name                  : G:\Новая папка\Campo &amp; David Puentez - Fresh.mp4
Format                         : MPEG-4
Format profile                 : Base Media
Codec ID                       : isom (isom/iso2/avc1/mp41)
File size                      : 122 MiB
Duration                       : 2 min 28 s
Overall bit rate               : 6 904 kb/s
Frame rate                     : 23.976 FPS
Movie name                     : Fresh
Performer                      : Steff da Campo &amp; David Puentez
Genre                          : Dance
ContentType                    : Music Video
Recorded date                  : 2020-07-24 07:00:00 UTC
Writing application            : Lavf56.30.100
Copyright                      : ℗ 2020 SpinninRecords.com

Video
ID                             : 1
Format                         : AVC
Format/Info                    : Advanced Video Codec
Format profile                 : High@L4
Format settings                : CABAC / 4 Ref Frames
Format settings, CABAC         : Yes
Format settings, Reference fra : 4 frames
Format settings, Slice count   : 8 slices per frame
Codec ID                       : avc1
Codec ID/Info                  : Advanced Video Coding
Duration                       : 2 min 28 s
Bit rate                       : 6 644 kb/s
Width                          : 1 920 pixels
Height                         : 880 pixels
Display aspect ratio           : 2.2:1
Frame rate mode                : Constant
Frame rate                     : 23.976 (24000/1001) FPS
Color space                    : YUV
Chroma subsampling             : 4:2:0
Bit depth                      : 8 bits
Scan type                      : Progressive
Bits/(Pixel*Frame)             : 0.164
Stream size                    : 118 MiB (96%)
Color range                    : Limited
Color primaries                : BT.709
Transfer characteristics       : BT.709
Matrix coefficients            : BT.709
Codec configuration box        : avcC

Audio
ID                             : 2
Format                         : AAC LC
Format/Info                    : Advanced Audio Codec Low Complexity
Codec ID                       : mp4a-40-2
Duration                       : 2 min 28 s
Bit rate mode                  : Constant
Bit rate                       : 256 kb/s
Channel(s)                     : 2 channels
Channel layout                 : L R
Sampling rate                  : 48.0 kHz
Frame rate                     : 46.875 FPS (1024 SPF)
Compression mode               : Lossy
Stream size                    : 4.53 MiB (4%)
Default                        : Yes
Alternate group                : 1

</pre>
</div>
<div class="bbCodeBlock bbCodeVfcHH HiddenContent">
<div class="attribution type">Hidden Content:</div>
<blockquote>You must either reply or click 'Like' to see the hidden information contained here.</blockquote>
</div>
<div class="messageTextEndMarker">&nbsp;</div>
</blockquote>
</article>]]></description>
                <author><![CDATA[vitalya3]]></author>
                </item>

                </channel></rss>